#!OML:ASF E:\Mandelcareful walks\Project 1\Capture day 1\Session 1\Subject1.ASF
:FULLY-SPECIFIED
:DEGREES
180
root -8.65871 1.73597 1.3737 137.98 83.5302 38.5701
lowerback -18.229 -0.104801 4.68332
upperback 0.283449 -1.18029 0.58436
thorax 10.5009 -0.31556 -2.33959
lowerneck -13.4377 23.2603 9.8623
upperneck 17.5885 31.785 -10.3696
head 11.0262 14.227 0.0253886
rclavicle 6.36111e-014 6.3462e-014
rhumerus -57.2084 -0.450404 -56.5143
rradius 123.849
rwrist -16.002
rhand -55.634 -37.1731
rfingers 7.12502
rthumb -27.9864 -65.1067
lclavicle 6.36111e-014 6.3462e-014
lhumerus -39.3843 -14.672 46.8585
lradius 104.251
lwrist 23.5612
lhand -54.9453 94.7872
lfingers 7.12502
lthumb -27.3278 -66.748
rfemur -14.2961 -11.2895 12.0653
rtibia 18.8499
rfoot -48.7871 -41.1545
rtoes 46.3401
lfemur -24.1755 28.8304 -17.4653
ltibia 32.6501
lfoot -22.3052 25.7702
ltoes 18.6842
181
root -8.65974 1.73592 1.37091 137.287 83.4351 37.9213
lowerback -18.3737 -0.131209 4.33883
upperback 0.28352 -1.13652 0.469643
thorax 10.5894 -0.307222 -2.26048
lowerneck -14.0347 23.1456 9.54628
upperneck 18.1395 31.663 -10.0045
head 11.1981 14.1183 0.216838
rclavicle -8.84592e-014 -7.93648e-014
rhumerus -57.3338 -0.531959 -56.5295
rradius 123.717
rwrist -16.2841
rhand -55.4603 -36.8259
rfingers 7.12502
rthumb -27.8203 -64.7864
lclavicle -8.84592e-014 -7.93648e-014
lhumerus -39.0012 -14.9823 46.6486
lradius 104.398
lwrist 23.6318
lhand -54.8959 93.7702
lfingers 7.12502
lthumb -27.2806 -65.7236
rfemur -14.2296 -11.2963 11.9143
rtibia 18.7926
rfoot -49.2765 -40.9017
rtoes 46.553
lfemur -24.1985 28.8773 -17.6136
ltibia 32.7283
lfoot -22.1516 25.8844
ltoes 16.5396
182
root -8.65653 1.736 1.36992 136.868 83.4179 37.585
lowerback -18.461 -0.180587 4.08992
upperback 0.279511 -1.13608 0.315311
thorax 10.6351 -0.314577 -2.28989
lowerneck -13.7928 23.0389 9.83937
upperneck 17.4656 31.603 -11.0063
head 11.1489 14.0688 -0.150779
rclavicle 6.77856e-014 8.76019e-014
rhumerus -57.4791 -0.505915 -56.7966
rradius 123.368
rwrist -16.3302
rhand -55.4924 -36.2125
rfingers 7.12502
rthumb -27.8511 -64.1681
lclavicle 6.77856e-014 8.76019e-014
lhumerus -38.7296 -15.2389 46.3717
lradius 104.581
lwrist 23.4325
lhand -55.0126 93.2852
lfingers 7.12502
lthumb -27.3922 -65.2562
rfemur -14.1843 -11.3025 11.8647
rtibia 18.8036
rfoot -49.4592 -41.0194
rtoes 46.4079
lfemur -24.1193 28.927 -17.6314
ltibia 32.7414
lfoot -22.4577 25.9631
ltoes 15.2117
183
root -8.65591 1.73726 1.37181 137.118 83.4412 37.9286
lowerback -18.4224 -0.256334 3.93427
upperback 0.17617 -1.17304 0.0895646
thorax 10.4924 -0.337977 -2.4575
lowerneck -13.6591 22.9474 10.1714
upperneck 17.0564 31.5034 -11.6073
head 11.1385 14.0178 -0.395581
rclavicle -1.80894e-014 1.51573e-015
rhumerus -57.6189 -0.454687 -57.3411
rradius 122.698
rwrist -16.199
rhand -55.5609 -35.5341
rfingers 7.12502
rthumb -27.9165 -63.4791
lclavicle -1.80894e-014 1.51573e-015
lhumerus -38.7646 -15.6902 45.7196
lradius 105.06
lwrist 23.365
lhand -55.3335 93.4165
lfingers 7.12502
lthumb -27.6991 -65.4364
rfemur -14.1591 -11.2551 11.9161
rtibia 18.8958
rfoot -49.4622 -41.2767
rtoes 46.4072
lfemur -24.0032 28.9206 -17.5347
ltibia 32.7115
lfoot -22.5841 25.9373
ltoes 15.9305
184
root -8.66317 1.73864 1.37519 137.115 83.3629 37.9726
lowerback -18.5091 -0.292977 3.68525
upperback 0.146212 -1.14045 -0.181416
thorax 10.5086 -0.326777 -2.60593
lowerneck -12.0675 22.6619 11.4995
upperneck 14.3483 31.2767 -15.0028
head 10.7421 13.9669 -1.76833
rclavicle 5.68524e-014 1.16562e-013
rhumerus -57.667 -0.679977 -57.735
rradius 122.069
rwrist -16.2848
rhand -55.4529 -34.5736
rfingers 7.12502
rthumb -27.8132 -62.5353
lclavicle 5.68524e-014 1.16562e-013
lhumerus -38.4801 -16.1602 45.1692
lradius 105.387
lwrist 23.3972
lhand -55.442 94.2417
lfingers 7.12502
lthumb -27.8028 -66.2784
rfemur -14.1542 -11.2904 11.8723
rtibia 19.0248
rfoot -49.4538 -41.2407
rtoes 46.5741
lfemur -23.9461 28.8616 -17.5565
ltibia 32.6663
lfoot -22.3261 25.7988
ltoes 18.1513
185
root -8.67051 1.74146 1.37269 136.267 83.1086 37.1809
lowerback -18.5805 -0.362061 3.30121
upperback 0.165868 -1.1192 -0.475507
thorax 10.5728 -0.325784 -2.70635
lowerneck -11.9688 22.4805 11.7078
upperneck 13.8424 31.1179 -15.9284
head 10.7419 13.8693 -2.108
rclavicle 3.91606e-014 2.16365e-014
rhumerus -57.7906 -0.870438 -57.9293
rradius 121.699
rwrist -16.4915
rhand -55.266 -34.1687
rfingers 7.12502
rthumb -27.6345 -62.1592
lclavicle 3.91606e-014 2.16365e-014
lhumerus -38.1693 -16.6052 44.6897
lradius 105.732
lwrist 23.5968
lhand -55.2353 94.6634
lfingers 7.12502
lthumb -27.6052 -66.6683
rfemur -14.0996 -11.4463 11.557
rtibia 19.1189
rfoot -49.3578 -41.1011
rtoes 46.6013
lfemur -23.8585 28.6932 -17.8087
ltibia 32.6431
lfoot -22.4374 25.6402
ltoes 20.1299
186
root -8.67217 1.74676 1.36376 136.819 82.9745 37.8684
lowerback -18.4044 -0.47452 3.1382
upperback 0.115007 -1.20027 -0.712917
thorax 10.4082 -0.369889 -2.89105
lowerneck -12.1612 22.3957 11.6903
upperneck 13.8893 31.0669 -16.1946
head 10.8372 13.8037 -2.17208
rclavicle -2.74323e-014 -3.21224e-014
rhumerus -57.8242 -0.883491 -58.2645
rradius 121.21
rwrist -16.4929
rhand -55.325 -34.0114
rfingers 7.12502
rthumb -27.691 -61.9928
lclavicle -2.74323e-014 -3.21224e-014
lhumerus -38.0189 -16.9978 44.1792
lradius 106.126
lwrist 23.5313
lhand -55.1541 93.9732
lfingers 7.12502
lthumb -27.5275 -65.9656
rfemur -13.9696 -11.6645 11.4257
rtibia 19.1746
rfoot -48.8564 -41.3647
rtoes 46.3054
lfemur -23.6681 28.3487 -17.7797
ltibia 32.6483
lfoot -22.7233 25.6576
ltoes 20.656
